<svg width="1280" height="720" viewBox="0 0 1280 720" fill="none" xmlns="http://www.w3.org/2000/svg">
  <rect width="1280" height="720" fill="#08161F"/>
  <rect width="1280" height="720" fill="url(#bg)"/>
  <path d="M0 610C152 561 286 545 417 554C561 565 685 607 829 620C984 635 1114 607 1280 556V720H0V610Z" fill="#163238"/>
  <path d="M0 650C153 608 295 593 431 601C583 610 717 651 860 662C1010 673 1138 651 1280 613V720H0V650Z" fill="#1F4A4D"/>
  <path d="M292 216H988L1041 512H239L292 216Z" fill="#2D4E57"/>
  <path d="M396 126H885V216H396V126Z" fill="#46726B"/>
  <rect x="614" y="88" width="52" height="110" rx="18" fill="#FDE68A"/>
  <rect x="631" y="111" width="18" height="64" rx="8" fill="#A7F3D0"/>
  <path d="M640 338L687 476H593L640 338Z" fill="#BBF7D0"/>
  <circle cx="640" cy="313" r="35" fill="#D9F99D"/>
  <rect x="279" y="504" width="204" height="26" rx="13" fill="#84CC16"/>
  <rect x="544" y="462" width="220" height="26" rx="13" fill="#22D3EE"/>
  <rect x="829" y="420" width="148" height="26" rx="13" fill="#A78BFA"/>
  <defs>
    <linearGradient id="bg" x1="640" y1="0" x2="640" y2="720" gradientUnits="userSpaceOnUse">
      <stop stop-color="#0D2431"/>
      <stop offset="0.53" stop-color="#183A3C"/>
      <stop offset="1" stop-color="#071218"/>
    </linearGradient>
  </defs>
</svg>
